# xmcd
#
# Track frame offsets: 
#        150
#        15798
#        29605
#        42725
#        58188
#        73450
#        88033
#        103420
#        119760
#        131350
#
# Disc length: 1913 seconds
#
# Revision: 1
# Processed by: cddbd v1.4PL0 Copyright (c) Steve Scherf et al.
# Submitted via: ExactAudioCopy v0.90b4
#
DISCID=9707770a
DTITLE=Tammy Wynette - Next To You
DYEAR=1900
DGENRE=Country
TTITLE0=Next To You
TTITLE1=I'm So Afraid Of Losing You Again
TTITLE2=You Left Memories Layin' (All Over The Place)
TTITLE3=When A Girl Becomes A Wife
TTITLE4=If You Let Him Drive You Crazy (He Will)
TTITLE5=The Note
TTITLE6=Thank The Cowboy For The Ride
TTITLE7=I Almost Forgot
TTITLE8=We Called It Everything But Quits
TTITLE9=Liar's Roses
EXTD=
EXTT0=
EXTT1=
EXTT2=
EXTT3=
EXTT4=
EXTT5=
EXTT6=
EXTT7=
EXTT8=
EXTT9=
PLAYORDER=
